<svg width="1024" height="500" viewBox="0 0 1024 500" fill="none" xmlns="http://www.w3.org/2000/svg">
<g clip-path="url(#clip0_205_2)">
<path d="M318.091 62.7539H327.21V90H333.208V62.7539H342.305V58.0078H318.091V62.7539ZM343.162 90H349.007V76.2012C349.49 75.2051 350.179 74.3921 351.072 73.7622C351.98 73.1177 352.955 72.7954 353.995 72.7954C354.405 72.7954 354.778 72.8174 355.115 72.8613C355.467 72.9053 355.774 72.9712 356.038 73.0591V68.4009C355.906 68.3423 355.657 68.2837 355.291 68.2251C354.939 68.1519 354.588 68.1152 354.236 68.1152C353.05 68.1152 352.002 68.4302 351.094 69.0601C350.201 69.6753 349.476 70.4443 348.919 71.3672H348.875L348.809 68.6206H343.162V90ZM356.895 83.8037C356.895 85.957 357.569 87.5903 358.917 88.7036C360.264 89.8022 362.029 90.3516 364.212 90.3516C366.058 90.3516 367.588 90.0146 368.804 89.3408C370.02 88.6523 370.87 87.8833 371.353 87.0337C371.412 87.5757 371.507 88.1177 371.639 88.6597C371.785 89.187 371.961 89.6338 372.166 90H377.835V89.6704C377.542 89.0698 377.322 88.3667 377.176 87.561C377.029 86.7554 376.956 85.8984 376.956 84.9902V75.4321C376.956 72.8687 376.172 71.001 374.605 69.8291C373.038 68.6426 370.782 68.0493 367.837 68.0493C364.878 68.0493 362.527 68.6646 360.784 69.895C359.041 71.1255 358.169 72.6855 358.169 74.5752V75.0366L363.663 75.0586V74.6631C363.663 73.7988 363.978 73.103 364.607 72.5757C365.237 72.0483 366.211 71.7847 367.53 71.7847C368.848 71.7847 369.786 72.0996 370.342 72.7295C370.899 73.3447 371.177 74.2017 371.177 75.3003V76.7944H366.255C363.472 76.7944 361.216 77.417 359.488 78.6621C357.759 79.8926 356.895 81.6064 356.895 83.8037ZM362.63 83.3862C362.63 82.3022 363.04 81.4893 363.86 80.9473C364.681 80.3906 365.933 80.1123 367.618 80.1123H371.177V82.3755C371.177 83.4888 370.679 84.4849 369.683 85.3638C368.702 86.228 367.566 86.6602 366.277 86.6602C365.062 86.6602 364.146 86.3818 363.531 85.8252C362.93 85.2539 362.63 84.4409 362.63 83.3862ZM381.878 90H387.635V75.6738C388.06 74.7363 388.66 73.9893 389.437 73.4326C390.213 72.876 391.092 72.5977 392.073 72.5977C393.23 72.5977 394.124 72.9053 394.754 73.5205C395.384 74.1357 395.699 75.1758 395.699 76.6406V90H401.478V76.1133C401.478 73.2275 400.811 71.1768 399.478 69.9609C398.16 68.7451 396.417 68.1372 394.249 68.1372C392.725 68.1372 391.385 68.4302 390.228 69.0161C389.07 69.6021 388.191 70.4004 387.591 71.4111H387.503L387.437 68.6206H381.878V90ZM405.213 83.2544V83.606C405.242 85.8179 406.077 87.5317 407.718 88.7476C409.373 89.9634 411.746 90.5713 414.837 90.5713C417.957 90.5713 420.323 89.9634 421.934 88.7476C423.545 87.5317 424.351 85.8252 424.351 83.6279C424.351 81.7969 423.714 80.3687 422.439 79.3433C421.18 78.3179 419.239 77.5342 416.617 76.9922C414.493 76.5381 413.072 76.106 412.354 75.6958C411.651 75.2856 411.299 74.7437 411.299 74.0698C411.299 73.3374 411.578 72.7734 412.134 72.3779C412.691 71.9824 413.548 71.7847 414.705 71.7847C415.95 71.7847 416.888 72.019 417.518 72.4878C418.162 72.9565 418.484 73.689 418.484 74.6851V75.0806H423.846V74.729C423.846 72.5903 423.025 70.9351 421.385 69.7632C419.759 68.5913 417.562 68.0054 414.793 68.0054C411.995 68.0054 409.791 68.5767 408.179 69.7192C406.568 70.8472 405.762 72.4146 405.762 74.4214C405.762 76.2378 406.37 77.6733 407.586 78.728C408.816 79.7827 410.721 80.5811 413.299 81.123C415.438 81.5771 416.858 82.0166 417.562 82.4414C418.265 82.8516 418.616 83.4595 418.616 84.2651C418.616 85.1001 418.287 85.7446 417.627 86.1987C416.968 86.6382 416.009 86.8579 414.749 86.8579C413.46 86.8579 412.442 86.6162 411.695 86.1328C410.948 85.6348 410.574 84.8145 410.574 83.6719V83.2983L405.213 83.2544ZM429.383 90H435.118V70.2686L435.074 69.939V65.8521C435.074 64.2554 435.389 63.0981 436.019 62.3804C436.648 61.6479 437.542 61.2817 438.699 61.2817C439.08 61.2817 439.439 61.311 439.776 61.3696C440.113 61.4136 440.42 61.4648 440.699 61.5234L440.94 57.1948C440.472 57.0776 439.988 56.9897 439.49 56.9312C438.992 56.8579 438.472 56.8213 437.93 56.8213C435.337 56.8213 433.265 57.5464 431.712 58.9966C430.159 60.4321 429.383 62.5562 429.383 65.3687V90ZM426.043 72.8833H439.38V68.6206H431.602H430.987H426.043V72.8833ZM440.062 79.6289C440.062 82.9541 441.028 85.6128 442.962 87.605C444.91 89.5825 447.635 90.5713 451.136 90.5713C453.597 90.5713 455.604 90.1099 457.156 89.187C458.724 88.2495 459.844 87.0703 460.518 85.6494L456.08 83.6279C455.596 84.3896 454.937 85.0342 454.102 85.5615C453.282 86.0742 452.271 86.3306 451.07 86.3306C449.356 86.3306 448.052 85.7373 447.159 84.5508C446.265 83.3496 445.818 81.7456 445.818 79.7388V78.5083C445.818 76.6772 446.229 75.1685 447.049 73.9819C447.884 72.7954 449.114 72.2021 450.74 72.2021C452.205 72.2021 453.296 72.6489 454.014 73.5425C454.732 74.4214 455.091 75.4907 455.091 76.7505V77.0361H443.423V80.4639H460.738V78.6182C460.738 75.3076 459.866 72.7148 458.123 70.8398C456.395 68.9502 453.934 68.0054 450.74 68.0054C447.532 68.0054 444.947 69.0015 442.984 70.9937C441.036 72.9858 440.062 75.6299 440.062 78.9258V79.6289ZM464.319 90H470.164V76.2012C470.647 75.2051 471.336 74.3921 472.229 73.7622C473.138 73.1177 474.112 72.7954 475.152 72.7954C475.562 72.7954 475.936 72.8174 476.272 72.8613C476.624 72.9053 476.932 72.9712 477.195 73.0591V68.4009C477.063 68.3423 476.814 68.2837 476.448 68.2251C476.097 68.1519 475.745 68.1152 475.394 68.1152C474.207 68.1152 473.16 68.4302 472.251 69.0601C471.358 69.6753 470.633 70.4443 470.076 71.3672H470.032L469.966 68.6206H464.319V90ZM490.511 90H493.587V69.939V69.5874V64.6216C493.587 62.8345 493.938 61.5381 494.642 60.7324C495.359 59.9121 496.37 59.502 497.674 59.502C498.055 59.502 498.428 59.5312 498.794 59.5898C499.175 59.6484 499.505 59.707 499.783 59.7656L500.025 57.1509C499.629 57.0483 499.205 56.9678 498.75 56.9092C498.311 56.8359 497.872 56.7993 497.432 56.7993C495.293 56.7993 493.602 57.4658 492.356 58.7988C491.126 60.1172 490.511 62.0581 490.511 64.6216V90ZM486.797 71.1914H498.289V68.6426H492.356H491.719H486.797V71.1914ZM501.102 90H504.178V68.6426H501.102V90ZM500.618 61.2598C500.618 61.8311 500.794 62.3145 501.146 62.71C501.497 63.0908 501.995 63.2812 502.64 63.2812C503.284 63.2812 503.782 63.0908 504.134 62.71C504.485 62.3145 504.661 61.8311 504.661 61.2598C504.661 60.6885 504.485 60.2197 504.134 59.8535C503.797 59.4727 503.299 59.2822 502.64 59.2822C501.995 59.2822 501.497 59.4727 501.146 59.8535C500.794 60.2344 500.618 60.7031 500.618 61.2598ZM510.154 90H513.23V57.2607H510.154V90ZM517.713 79.6509C517.713 82.9175 518.555 85.5469 520.24 87.5391C521.939 89.5312 524.356 90.5273 527.491 90.5273C529.542 90.5273 531.241 90.1099 532.588 89.2749C533.951 88.4399 534.947 87.5317 535.577 86.5503L533.533 84.7705C532.947 85.6641 532.149 86.4111 531.138 87.0117C530.127 87.6123 528.904 87.9126 527.469 87.9126C525.271 87.9126 523.616 87.1362 522.503 85.5835C521.39 84.0308 520.833 82.0532 520.833 79.6509V78.9478C520.833 76.5454 521.353 74.5752 522.393 73.0371C523.448 71.499 525.022 70.73 527.117 70.73C529.036 70.73 530.435 71.3672 531.314 72.6416C532.193 73.9014 532.632 75.3589 532.632 77.0142V77.3218H519.537V79.8706H535.752V78.6182C535.752 75.3223 534.998 72.7441 533.489 70.8838C531.995 69.0234 529.842 68.0933 527.029 68.0933C524.231 68.0933 521.976 69.0967 520.262 71.1035C518.562 73.1104 517.713 75.7251 517.713 78.9478V79.6509ZM539.026 83.5181V83.8477C539.026 85.9424 539.722 87.583 541.114 88.7695C542.505 89.9414 544.556 90.5273 547.266 90.5273C549.991 90.5273 552.027 89.9414 553.375 88.7695C554.737 87.583 555.418 86.0376 555.418 84.1333C555.418 82.3315 554.795 80.9473 553.55 79.9805C552.305 79.0137 550.569 78.2373 548.343 77.6514C546.131 77.0801 544.629 76.5308 543.838 76.0034C543.047 75.4761 542.652 74.7583 542.652 73.8501C542.652 72.8687 543.025 72.1069 543.772 71.5649C544.534 71.0229 545.669 70.752 547.178 70.752C548.687 70.752 549.837 71.0449 550.628 71.6309C551.434 72.2021 551.836 73.125 551.836 74.3994V74.729H554.891V74.4434C554.891 72.4219 554.18 70.8618 552.759 69.7632C551.353 68.6499 549.493 68.0933 547.178 68.0933C544.864 68.0933 543.018 68.6353 541.641 69.7192C540.264 70.8032 539.576 72.2168 539.576 73.96C539.576 75.6885 540.176 77.0288 541.377 77.981C542.593 78.9185 544.344 79.6802 546.629 80.2661C548.87 80.8374 550.379 81.394 551.155 81.936C551.946 82.478 552.342 83.291 552.342 84.375C552.342 85.5029 551.888 86.3745 550.979 86.9897C550.086 87.5903 548.841 87.8906 547.244 87.8906C545.662 87.8906 544.41 87.5684 543.487 86.9238C542.564 86.2793 542.103 85.2539 542.103 83.8477V83.5181H539.026ZM567.876 83.8477C567.876 85.957 568.536 87.5684 569.854 88.6816C571.172 89.7949 572.872 90.3516 574.952 90.3516C576.768 90.3516 578.255 89.9927 579.412 89.2749C580.569 88.5425 581.404 87.7148 581.917 86.792C581.976 87.3779 582.085 87.9639 582.247 88.5498C582.408 89.1357 582.591 89.6191 582.796 90H585.718V89.6484C585.455 89.0186 585.257 88.2788 585.125 87.4292C584.993 86.5796 584.927 85.6787 584.927 84.7266V75.1245C584.927 72.6782 584.246 70.8984 582.884 69.7852C581.521 68.6572 579.617 68.0933 577.171 68.0933C574.666 68.0933 572.688 68.6938 571.238 69.895C569.788 71.0815 569.063 72.4951 569.063 74.1357V74.6631H572.161V74.3115C572.161 73.2275 572.564 72.3633 573.37 71.7188C574.19 71.0596 575.442 70.73 577.127 70.73C578.812 70.73 580.013 71.1182 580.73 71.8945C581.463 72.6562 581.829 73.7329 581.829 75.1245V77.0142H576.841C574.161 77.0142 571.993 77.6294 570.337 78.8599C568.697 80.0757 567.876 81.7383 567.876 83.8477ZM570.953 83.7158C570.953 82.3828 571.473 81.3281 572.513 80.5518C573.553 79.7754 575.135 79.3872 577.259 79.3872H581.829V82.5513C581.829 83.8403 581.177 85.0269 579.874 86.1108C578.584 87.1948 577.142 87.7368 575.545 87.7368C574.036 87.7368 572.894 87.3926 572.117 86.7041C571.341 86.0156 570.953 85.0195 570.953 83.7158ZM590.596 90H593.672V74.751C594.214 73.6084 594.976 72.6855 595.958 71.9824C596.954 71.2646 598.089 70.9058 599.363 70.9058C600.857 70.9058 602.015 71.3086 602.835 72.1143C603.655 72.9053 604.065 74.2383 604.065 76.1133V90H607.164V76.0034C607.164 73.1909 606.541 71.1914 605.296 70.0049C604.065 68.8037 602.403 68.2031 600.308 68.2031C598.887 68.2031 597.591 68.4961 596.419 69.082C595.262 69.6533 594.317 70.4883 593.584 71.5869H593.519L593.453 68.6426H590.596V90ZM611.316 79.6509C611.316 82.771 612.1 85.3491 613.667 87.3853C615.25 89.4214 617.396 90.4395 620.105 90.4395C621.644 90.4395 622.977 90.1099 624.104 89.4507C625.247 88.7769 626.111 87.9712 626.697 87.0337H626.763L626.851 90H629.708V57.2607H626.609V71.1035C625.994 70.2246 625.145 69.5215 624.061 68.9941C622.977 68.4668 621.658 68.2031 620.105 68.2031C617.439 68.2031 615.308 69.2212 613.711 71.2573C612.115 73.2788 611.316 75.8423 611.316 78.9478V79.6509ZM614.48 79.6509V78.9478C614.48 76.6187 614.986 74.6924 615.997 73.1689C617.007 71.6309 618.589 70.8618 620.743 70.8618C622.193 70.8618 623.423 71.228 624.434 71.9604C625.459 72.6929 626.185 73.5645 626.609 74.5752V83.8696C626.17 84.895 625.445 85.8032 624.434 86.5942C623.423 87.3853 622.193 87.7808 620.743 87.7808C618.589 87.7808 617.007 87.0117 615.997 85.4736C614.986 83.9355 614.48 81.9946 614.48 79.6509ZM644.341 82.6172C644.341 85.4297 644.957 87.4365 646.187 88.6377C647.417 89.8389 649.08 90.4395 651.175 90.4395C652.596 90.4395 653.877 90.1392 655.02 89.5386C656.163 88.938 657.122 88.0884 657.898 86.9897H657.942L658.052 90H660.909V68.6426H657.811V83.8696C657.225 85.0122 656.448 85.9424 655.481 86.6602C654.515 87.3779 653.394 87.7368 652.12 87.7368C650.611 87.7368 649.446 87.3633 648.626 86.6162C647.82 85.8545 647.417 84.5361 647.417 82.6611V68.6426H644.341V82.6172ZM666.666 90H669.742V74.751C670.254 73.667 670.979 72.7808 671.917 72.0923C672.854 71.3892 673.902 71.0376 675.059 71.0376C675.455 71.0376 675.813 71.0596 676.136 71.1035C676.473 71.1328 676.773 71.1768 677.037 71.2354V68.3569C676.89 68.2983 676.641 68.2397 676.29 68.1812C675.938 68.1226 675.623 68.0933 675.345 68.0933C674.012 68.0933 672.876 68.4302 671.939 69.104C671.001 69.7632 670.24 70.5688 669.654 71.521H669.588L669.522 68.6426H666.666V90ZM680.135 90H683.211V57.2607H680.135V90ZM688.089 83.5181V83.8477C688.089 85.9424 688.785 87.583 690.176 88.7695C691.568 89.9414 693.619 90.5273 696.329 90.5273C699.053 90.5273 701.089 89.9414 702.437 88.7695C703.799 87.583 704.48 86.0376 704.48 84.1333C704.48 82.3315 703.858 80.9473 702.613 79.9805C701.368 79.0137 699.632 78.2373 697.405 77.6514C695.193 77.0801 693.692 76.5308 692.901 76.0034C692.11 75.4761 691.714 74.7583 691.714 73.8501C691.714 72.8687 692.088 72.1069 692.835 71.5649C693.597 71.0229 694.732 70.752 696.241 70.752C697.75 70.752 698.899 71.0449 699.69 71.6309C700.496 72.2021 700.899 73.125 700.899 74.3994V74.729H703.953V74.4434C703.953 72.4219 703.243 70.8618 701.822 69.7632C700.416 68.6499 698.555 68.0933 696.241 68.0933C693.926 68.0933 692.081 68.6353 690.704 69.7192C689.327 70.8032 688.638 72.2168 688.638 73.96C688.638 75.6885 689.239 77.0288 690.44 77.981C691.656 78.9185 693.406 79.6802 695.691 80.2661C697.933 80.8374 699.441 81.394 700.218 81.936C701.009 82.478 701.404 83.291 701.404 84.375C701.404 85.5029 700.95 86.3745 700.042 86.9897C699.148 87.5903 697.903 87.8906 696.307 87.8906C694.725 87.8906 693.472 87.5684 692.549 86.9238C691.626 86.2793 691.165 85.2539 691.165 83.8477V83.5181H688.089ZM225.718 143H228.575L228.641 140.188H228.707C229.292 141.125 230.171 141.901 231.343 142.517C232.53 143.132 233.885 143.439 235.408 143.439C238.104 143.439 240.22 142.399 241.758 140.319C243.311 138.239 244.087 135.639 244.087 132.519V131.816C244.087 128.71 243.311 126.169 241.758 124.191C240.22 122.199 238.104 121.203 235.408 121.203C233.885 121.203 232.574 121.489 231.475 122.06C230.376 122.617 229.483 123.364 228.794 124.301V110.261H225.718V143ZM228.794 136.958V127.663C229.249 126.667 229.981 125.788 230.992 125.026C232.002 124.25 233.233 123.862 234.683 123.862C236.836 123.862 238.411 124.602 239.407 126.081C240.418 127.561 240.923 129.472 240.923 131.816V132.519C240.923 134.863 240.418 136.826 239.407 138.408C238.411 139.99 236.888 140.781 234.837 140.781C233.284 140.781 232.01 140.4 231.014 139.638C230.018 138.862 229.278 137.968 228.794 136.958ZM247.098 132.651C247.098 135.917 247.94 138.547 249.625 140.539C251.324 142.531 253.741 143.527 256.875 143.527C258.926 143.527 260.625 143.11 261.973 142.275C263.335 141.44 264.332 140.532 264.961 139.55L262.918 137.771C262.332 138.664 261.534 139.411 260.523 140.012C259.512 140.612 258.289 140.913 256.854 140.913C254.656 140.913 253.001 140.136 251.888 138.583C250.774 137.031 250.218 135.053 250.218 132.651V131.948C250.218 129.545 250.738 127.575 251.778 126.037C252.833 124.499 254.407 123.73 256.502 123.73C258.421 123.73 259.82 124.367 260.699 125.642C261.578 126.901 262.017 128.359 262.017 130.014V130.322H248.921V132.871H265.137V131.618C265.137 128.322 264.383 125.744 262.874 123.884C261.38 122.023 259.227 121.093 256.414 121.093C253.616 121.093 251.36 122.097 249.646 124.104C247.947 126.11 247.098 128.725 247.098 131.948V132.651ZM266.565 124.191H278.431V121.643H266.565V124.191ZM270.367 137.397C270.367 139.638 270.821 141.22 271.729 142.143C272.637 143.066 273.868 143.527 275.42 143.527C276.021 143.527 276.563 143.476 277.046 143.374C277.544 143.286 277.947 143.176 278.255 143.044V140.363C277.918 140.51 277.574 140.62 277.222 140.693C276.871 140.766 276.504 140.803 276.124 140.803C275.215 140.803 274.542 140.576 274.102 140.122C273.677 139.667 273.465 138.759 273.465 137.397V114.677H270.367V122.543V122.961V137.397ZM279.485 121.643L285.901 143H288.736L293.68 127.927C293.841 127.458 293.98 127.004 294.097 126.564C294.229 126.11 294.354 125.642 294.471 125.158H294.581C294.698 125.642 294.822 126.11 294.954 126.564C295.086 127.004 295.225 127.458 295.372 127.927L300.293 143H303.106L309.5 121.643H306.622L302.557 136.21C302.41 136.723 302.271 137.229 302.139 137.727C302.022 138.21 301.919 138.657 301.832 139.067H301.7C301.612 138.657 301.502 138.225 301.37 137.771C301.238 137.302 301.077 136.782 300.887 136.21L296.163 121.643H293.086L288.296 136.21C288.121 136.782 287.967 137.294 287.835 137.749C287.703 138.203 287.586 138.642 287.483 139.067H287.352C287.264 138.642 287.161 138.203 287.044 137.749C286.941 137.294 286.81 136.782 286.648 136.21L282.54 121.643H279.485ZM311.39 132.651C311.39 135.917 312.232 138.547 313.917 140.539C315.616 142.531 318.033 143.527 321.167 143.527C323.218 143.527 324.917 143.11 326.265 142.275C327.627 141.44 328.624 140.532 329.253 139.55L327.21 137.771C326.624 138.664 325.826 139.411 324.815 140.012C323.804 140.612 322.581 140.913 321.146 140.913C318.948 140.913 317.293 140.136 316.18 138.583C315.066 137.031 314.51 135.053 314.51 132.651V131.948C314.51 129.545 315.03 127.575 316.07 126.037C317.125 124.499 318.699 123.73 320.794 123.73C322.713 123.73 324.112 124.367 324.991 125.642C325.87 126.901 326.309 128.359 326.309 130.014V130.322H313.213V132.871H329.429V131.618C329.429 128.322 328.675 125.744 327.166 123.884C325.672 122.023 323.519 121.093 320.706 121.093C317.908 121.093 315.652 122.097 313.938 124.104C312.239 126.11 311.39 128.725 311.39 131.948V132.651ZM332.308 132.651C332.308 135.917 333.15 138.547 334.834 140.539C336.534 142.531 338.951 143.527 342.085 143.527C344.136 143.527 345.835 143.11 347.183 142.275C348.545 141.44 349.542 140.532 350.171 139.55L348.128 137.771C347.542 138.664 346.744 139.411 345.733 140.012C344.722 140.612 343.499 140.913 342.063 140.913C339.866 140.913 338.211 140.136 337.098 138.583C335.984 137.031 335.428 135.053 335.428 132.651V131.948C335.428 129.545 335.948 127.575 336.988 126.037C338.042 124.499 339.617 123.73 341.712 123.73C343.631 123.73 345.03 124.367 345.909 125.642C346.788 126.901 347.227 128.359 347.227 130.014V130.322H334.131V132.871H350.347V131.618C350.347 128.322 349.593 125.744 348.084 123.884C346.59 122.023 344.437 121.093 341.624 121.093C338.826 121.093 336.57 122.097 334.856 124.104C333.157 126.11 332.308 128.725 332.308 131.948V132.651ZM354.61 143H357.686V127.751C358.228 126.608 358.99 125.686 359.971 124.982C360.967 124.265 362.103 123.906 363.377 123.906C364.871 123.906 366.028 124.309 366.849 125.114C367.669 125.905 368.079 127.238 368.079 129.113V143H371.177V129.003C371.177 126.191 370.555 124.191 369.31 123.005C368.079 121.804 366.417 121.203 364.322 121.203C362.901 121.203 361.604 121.496 360.433 122.082C359.275 122.653 358.331 123.488 357.598 124.587H357.532L357.466 121.643H354.61V143ZM382.603 143H388.316L395.611 119.775C395.787 119.218 395.933 118.72 396.05 118.281C396.167 117.827 396.277 117.387 396.38 116.962H396.512C396.614 117.387 396.717 117.827 396.819 118.281C396.937 118.72 397.083 119.218 397.259 119.775L404.708 143H410.772L399.961 110.942H393.436L382.603 143ZM388.228 135.639H404.927L403.741 131.376H389.349L388.228 135.639ZM412.903 143H418.66V128.674C419.085 127.736 419.686 126.989 420.462 126.433C421.238 125.876 422.117 125.598 423.099 125.598C424.256 125.598 425.149 125.905 425.779 126.521C426.409 127.136 426.724 128.176 426.724 129.641V143H432.503V129.113C432.503 126.228 431.836 124.177 430.503 122.961C429.185 121.745 427.442 121.137 425.274 121.137C423.75 121.137 422.41 121.43 421.253 122.016C420.096 122.602 419.217 123.4 418.616 124.411H418.528L418.462 121.621H412.903V143ZM436.019 132.651C436.019 135.786 436.824 138.371 438.436 140.407C440.062 142.429 442.273 143.439 445.071 143.439C446.595 143.439 447.913 143.117 449.026 142.473C450.154 141.828 451.004 141.052 451.575 140.144H451.619L451.707 143H457.2V110.305H451.487V123.994C450.887 123.144 450.044 122.463 448.96 121.95C447.891 121.438 446.595 121.181 445.071 121.181C442.361 121.181 440.171 122.192 438.501 124.213C436.846 126.22 436.019 128.798 436.019 131.948V132.651ZM441.885 132.695V131.904C441.885 130.014 442.288 128.461 443.094 127.246C443.899 126.015 445.145 125.4 446.829 125.4C447.972 125.4 448.938 125.7 449.729 126.301C450.521 126.887 451.084 127.597 451.421 128.432V136.057C451.07 136.892 450.499 137.631 449.708 138.276C448.917 138.906 447.95 139.221 446.807 139.221C445.137 139.221 443.899 138.613 443.094 137.397C442.288 136.167 441.885 134.599 441.885 132.695ZM462.122 143H467.967V129.201C468.45 128.205 469.139 127.392 470.032 126.762C470.94 126.118 471.915 125.795 472.955 125.795C473.365 125.795 473.738 125.817 474.075 125.861C474.427 125.905 474.734 125.971 474.998 126.059V121.401C474.866 121.342 474.617 121.284 474.251 121.225C473.899 121.152 473.548 121.115 473.196 121.115C472.01 121.115 470.962 121.43 470.054 122.06C469.161 122.675 468.436 123.444 467.879 124.367H467.835L467.769 121.621H462.122V143ZM476.185 132.629C476.185 135.925 477.195 138.576 479.217 140.583C481.238 142.575 483.912 143.571 487.237 143.571C490.577 143.571 493.257 142.575 495.279 140.583C497.3 138.576 498.311 135.925 498.311 132.629V131.926C498.311 128.645 497.3 126.008 495.279 124.016C493.257 122.009 490.577 121.005 487.237 121.005C483.912 121.005 481.238 122.009 479.217 124.016C477.195 126.008 476.185 128.645 476.185 131.926V132.629ZM482.051 131.728C482.051 129.794 482.491 128.249 483.37 127.092C484.263 125.92 485.552 125.334 487.237 125.334C488.921 125.334 490.203 125.92 491.082 127.092C491.976 128.249 492.422 129.794 492.422 131.728V132.805C492.422 134.753 491.983 136.32 491.104 137.507C490.225 138.679 488.936 139.265 487.237 139.265C485.552 139.265 484.263 138.679 483.37 137.507C482.491 136.32 482.051 134.753 482.051 132.805V131.728ZM502.112 143H507.957V121.621H502.112V143ZM501.651 114.589C501.651 115.468 501.937 116.215 502.508 116.831C503.094 117.446 503.929 117.753 505.013 117.753C506.097 117.753 506.932 117.453 507.518 116.853C508.118 116.237 508.418 115.483 508.418 114.589C508.418 113.71 508.125 112.978 507.54 112.392C506.968 111.792 506.133 111.491 505.035 111.491C503.951 111.491 503.116 111.792 502.53 112.392C501.944 112.978 501.651 113.71 501.651 114.589ZM511.78 132.651C511.78 135.786 512.586 138.371 514.197 140.407C515.823 142.429 518.035 143.439 520.833 143.439C522.356 143.439 523.675 143.117 524.788 142.473C525.916 141.828 526.766 141.052 527.337 140.144H527.381L527.469 143H532.962V110.305H527.249V123.994C526.648 123.144 525.806 122.463 524.722 121.95C523.653 121.438 522.356 121.181 520.833 121.181C518.123 121.181 515.933 122.192 514.263 124.213C512.608 126.22 511.78 128.798 511.78 131.948V132.651ZM517.647 132.695V131.904C517.647 130.014 518.05 128.461 518.855 127.246C519.661 126.015 520.906 125.4 522.591 125.4C523.733 125.4 524.7 125.7 525.491 126.301C526.282 126.887 526.846 127.597 527.183 128.432V136.057C526.832 136.892 526.26 137.631 525.469 138.276C524.678 138.906 523.711 139.221 522.569 139.221C520.899 139.221 519.661 138.613 518.855 137.397C518.05 136.167 517.647 134.599 517.647 132.695ZM546.124 136.848C546.124 138.957 546.783 140.568 548.101 141.682C549.419 142.795 551.119 143.352 553.199 143.352C555.015 143.352 556.502 142.993 557.659 142.275C558.816 141.542 559.651 140.715 560.164 139.792C560.223 140.378 560.333 140.964 560.494 141.55C560.655 142.136 560.838 142.619 561.043 143H563.965V142.648C563.702 142.019 563.504 141.279 563.372 140.429C563.24 139.58 563.174 138.679 563.174 137.727V128.125C563.174 125.678 562.493 123.898 561.131 122.785C559.769 121.657 557.864 121.093 555.418 121.093C552.913 121.093 550.936 121.694 549.485 122.895C548.035 124.082 547.31 125.495 547.31 127.136V127.663H550.408V127.312C550.408 126.228 550.811 125.363 551.617 124.719C552.437 124.06 553.689 123.73 555.374 123.73C557.059 123.73 558.26 124.118 558.978 124.895C559.71 125.656 560.076 126.733 560.076 128.125V130.014H555.088C552.408 130.014 550.24 130.629 548.584 131.86C546.944 133.076 546.124 134.738 546.124 136.848ZM549.2 136.716C549.2 135.383 549.72 134.328 550.76 133.552C551.8 132.775 553.382 132.387 555.506 132.387H560.076V135.551C560.076 136.84 559.424 138.027 558.121 139.111C556.832 140.195 555.389 140.737 553.792 140.737C552.283 140.737 551.141 140.393 550.364 139.704C549.588 139.016 549.2 138.02 549.2 136.716ZM568.843 143H571.919V127.751C572.461 126.608 573.223 125.686 574.205 124.982C575.201 124.265 576.336 123.906 577.61 123.906C579.104 123.906 580.262 124.309 581.082 125.114C581.902 125.905 582.312 127.238 582.312 129.113V143H585.411V129.003C585.411 126.191 584.788 124.191 583.543 123.005C582.312 121.804 580.65 121.203 578.555 121.203C577.134 121.203 575.838 121.496 574.666 122.082C573.509 122.653 572.564 123.488 571.832 124.587H571.766L571.7 121.643H568.843V143ZM589.563 132.651C589.563 135.771 590.347 138.349 591.915 140.385C593.497 142.421 595.643 143.439 598.353 143.439C599.891 143.439 601.224 143.11 602.352 142.451C603.494 141.777 604.358 140.971 604.944 140.034H605.01L605.098 143H607.955V110.261H604.856V124.104C604.241 123.225 603.392 122.521 602.308 121.994C601.224 121.467 599.905 121.203 598.353 121.203C595.687 121.203 593.555 122.221 591.958 124.257C590.362 126.279 589.563 128.842 589.563 131.948V132.651ZM592.728 132.651V131.948C592.728 129.619 593.233 127.692 594.244 126.169C595.254 124.631 596.836 123.862 598.99 123.862C600.44 123.862 601.67 124.228 602.681 124.96C603.707 125.693 604.432 126.564 604.856 127.575V136.87C604.417 137.895 603.692 138.803 602.681 139.594C601.67 140.385 600.44 140.781 598.99 140.781C596.836 140.781 595.254 140.012 594.244 138.474C593.233 136.936 592.728 134.995 592.728 132.651ZM627.752 143.132H633.948L639.595 120.698C639.668 120.375 639.742 120.024 639.815 119.643C639.888 119.262 639.954 118.852 640.013 118.413H640.145C640.203 118.852 640.269 119.262 640.342 119.643C640.416 120.024 640.489 120.375 640.562 120.698L646.209 143.132H652.361L659.854 111.008H654.471L649.637 133.266C649.563 133.618 649.498 133.955 649.439 134.277C649.395 134.599 649.351 134.995 649.307 135.463H649.175C649.117 134.995 649.058 134.606 649 134.299C648.956 133.977 648.89 133.632 648.802 133.266L643.243 111.008H637.31L631.905 133.266C631.832 133.632 631.766 133.977 631.707 134.299C631.648 134.621 631.59 135.002 631.531 135.441H631.399C631.341 135.002 631.29 134.621 631.246 134.299C631.202 133.977 631.136 133.632 631.048 133.266L626.06 111.008H620.237L627.752 143.132ZM662.688 143H668.533V121.621H662.688V143ZM662.227 114.589C662.227 115.468 662.513 116.215 663.084 116.831C663.67 117.446 664.505 117.753 665.589 117.753C666.673 117.753 667.508 117.453 668.094 116.853C668.694 116.237 668.995 115.483 668.995 114.589C668.995 113.71 668.702 112.978 668.116 112.392C667.544 111.792 666.709 111.491 665.611 111.491C664.527 111.491 663.692 111.792 663.106 112.392C662.52 112.978 662.227 113.71 662.227 114.589ZM673.543 143H679.3V128.674C679.725 127.736 680.325 126.989 681.102 126.433C681.878 125.876 682.757 125.598 683.738 125.598C684.896 125.598 685.789 125.905 686.419 126.521C687.049 127.136 687.364 128.176 687.364 129.641V143H693.143V129.113C693.143 126.228 692.476 124.177 691.143 122.961C689.825 121.745 688.082 121.137 685.914 121.137C684.39 121.137 683.05 121.43 681.893 122.016C680.735 122.602 679.856 123.4 679.256 124.411H679.168L679.102 121.621H673.543V143ZM696.658 132.651C696.658 135.786 697.464 138.371 699.075 140.407C700.701 142.429 702.913 143.439 705.711 143.439C707.234 143.439 708.553 143.117 709.666 142.473C710.794 141.828 711.644 141.052 712.215 140.144H712.259L712.347 143H717.84V110.305H712.127V123.994C711.526 123.144 710.684 122.463 709.6 121.95C708.531 121.438 707.234 121.181 705.711 121.181C703.001 121.181 700.811 122.192 699.141 124.213C697.486 126.22 696.658 128.798 696.658 131.948V132.651ZM702.525 132.695V131.904C702.525 130.014 702.928 128.461 703.733 127.246C704.539 126.015 705.784 125.4 707.469 125.4C708.611 125.4 709.578 125.7 710.369 126.301C711.16 126.887 711.724 127.597 712.061 128.432V136.057C711.709 136.892 711.138 137.631 710.347 138.276C709.556 138.906 708.589 139.221 707.447 139.221C705.777 139.221 704.539 138.613 703.733 137.397C702.928 136.167 702.525 134.599 702.525 132.695ZM721.575 132.629C721.575 135.925 722.586 138.576 724.607 140.583C726.629 142.575 729.302 143.571 732.627 143.571C735.967 143.571 738.648 142.575 740.669 140.583C742.691 138.576 743.702 135.925 743.702 132.629V131.926C743.702 128.645 742.691 126.008 740.669 124.016C738.648 122.009 735.967 121.005 732.627 121.005C729.302 121.005 726.629 122.009 724.607 124.016C722.586 126.008 721.575 128.645 721.575 131.926V132.629ZM727.442 131.728C727.442 129.794 727.881 128.249 728.76 127.092C729.654 125.92 730.943 125.334 732.627 125.334C734.312 125.334 735.594 125.92 736.473 127.092C737.366 128.249 737.813 129.794 737.813 131.728V132.805C737.813 134.753 737.374 136.32 736.495 137.507C735.616 138.679 734.327 139.265 732.627 139.265C730.943 139.265 729.654 138.679 728.76 137.507C727.881 136.32 727.442 134.753 727.442 132.805V131.728ZM745.086 121.621L751.524 143H757.171L761.192 130.212C761.324 129.772 761.441 129.34 761.543 128.916C761.661 128.491 761.771 128.059 761.873 127.619H761.983C762.071 128.059 762.173 128.491 762.291 128.916C762.408 129.34 762.532 129.772 762.664 130.212L766.795 143H772.376L778.792 121.621H773.672L770.267 134.101C770.135 134.614 770.018 135.097 769.915 135.551C769.812 135.991 769.717 136.43 769.629 136.87H769.498C769.41 136.445 769.307 136.013 769.19 135.573C769.087 135.134 768.948 134.643 768.772 134.101L764.883 121.621H759.5L755.633 134.057C755.472 134.614 755.333 135.104 755.215 135.529C755.113 135.954 755.018 136.394 754.93 136.848H754.798C754.71 136.394 754.615 135.954 754.512 135.529C754.424 135.104 754.307 134.614 754.161 134.057L750.689 121.621H745.086ZM780.55 136.254V136.606C780.579 138.818 781.414 140.532 783.055 141.748C784.71 142.963 787.083 143.571 790.174 143.571C793.294 143.571 795.66 142.963 797.271 141.748C798.882 140.532 799.688 138.825 799.688 136.628C799.688 134.797 799.051 133.369 797.776 132.343C796.517 131.318 794.576 130.534 791.954 129.992C789.83 129.538 788.409 129.106 787.691 128.696C786.988 128.286 786.636 127.744 786.636 127.07C786.636 126.337 786.915 125.773 787.471 125.378C788.028 124.982 788.885 124.785 790.042 124.785C791.287 124.785 792.225 125.019 792.854 125.488C793.499 125.957 793.821 126.689 793.821 127.685V128.081H799.183V127.729C799.183 125.59 798.362 123.935 796.722 122.763C795.096 121.591 792.898 121.005 790.13 121.005C787.332 121.005 785.127 121.577 783.516 122.719C781.905 123.847 781.099 125.415 781.099 127.421C781.099 129.238 781.707 130.673 782.923 131.728C784.153 132.783 786.058 133.581 788.636 134.123C790.774 134.577 792.195 135.017 792.898 135.441C793.602 135.852 793.953 136.459 793.953 137.265C793.953 138.1 793.624 138.745 792.964 139.199C792.305 139.638 791.346 139.858 790.086 139.858C788.797 139.858 787.779 139.616 787.032 139.133C786.285 138.635 785.911 137.814 785.911 136.672V136.298L780.55 136.254Z" fill="#333333"/>
<path d="M70.6667 429C70.6667 431.946 73.0545 434.333 76 434.333C78.9455 434.333 81.3333 431.946 81.3333 429C81.3333 426.054 78.9455 423.667 76 423.667C73.0545 423.667 70.6667 426.054 70.6667 429ZM505.5 298L505.472 299L505.5 298ZM788.167 247C788.167 249.946 790.555 252.333 793.5 252.333C796.445 252.333 798.833 249.946 798.833 247C798.833 244.054 796.445 241.667 793.5 241.667C790.555 241.667 788.167 244.054 788.167 247ZM78.8261 427.462L79.5139 426.736L78.0621 425.36L77.3743 426.086L78.8261 427.462ZM81.5639 421.701L80.8701 422.421L82.3103 423.809L83.0042 423.089L81.5639 421.701ZM87.1605 418.812L87.8605 418.098L86.4323 416.698L85.7323 417.412L87.1605 418.812ZM89.9649 413.133L89.2585 413.841L90.674 415.254L91.3805 414.546L89.9649 413.133ZM95.6703 410.288L96.3834 409.587L94.9813 408.161L94.2682 408.862L95.6703 410.288ZM98.5512 404.692L97.8313 405.386L99.2195 406.826L99.9394 406.132L98.5512 404.692ZM104.291 401.978L105.018 401.292L103.645 399.838L102.918 400.524L104.291 401.978ZM107.338 396.393L106.604 397.072L107.962 398.54L108.696 397.861L107.338 396.393ZM113.081 393.85L113.823 393.179L112.481 391.696L111.74 392.367L113.081 393.85ZM116.264 388.322L115.514 388.984L116.839 390.482L117.588 389.82L116.264 388.322ZM122.11 385.871L122.867 385.217L121.561 383.703L120.804 384.356L122.11 385.871ZM125.35 380.482L124.585 381.126L125.873 382.656L126.638 382.012L125.35 380.482ZM131.297 378.143L132.07 377.509L130.802 375.962L130.029 376.596L131.297 378.143ZM134.693 372.825L133.911 373.448L135.158 375.012L135.94 374.388L134.693 372.825ZM140.66 370.676L141.45 370.063L140.225 368.483L139.435 369.095L140.66 370.676ZM144.237 365.427L143.438 366.028L144.641 367.627L145.44 367.025L144.237 365.427ZM150.218 363.485L151.025 362.896L149.847 361.28L149.039 361.869L150.218 363.485ZM153.977 358.324L153.16 358.901L154.314 360.535L155.131 359.958L153.977 358.324ZM160.034 356.553L160.86 355.99L159.732 354.338L158.906 354.902L160.034 356.553ZM163.925 351.535L163.09 352.085L164.191 353.755L165.026 353.205L163.925 351.535ZM170.061 349.947L170.905 349.411L169.833 347.722L168.989 348.259L170.061 349.947ZM174.091 345.079L173.238 345.601L174.281 347.307L175.134 346.785L174.091 345.079ZM180.295 343.693L181.158 343.187L180.145 341.462L179.283 341.969L180.295 343.693ZM184.479 338.98L183.607 339.471L184.589 341.214L185.46 340.723L184.479 338.98ZM190.739 337.814L191.62 337.34L190.671 335.579L189.79 336.054L190.739 337.814ZM195.106 333.252L194.217 333.71L195.133 335.488L196.022 335.03L195.106 333.252ZM201.392 332.329L202.289 331.888L201.407 330.093L200.51 330.534L201.392 332.329ZM205.941 327.931L205.035 328.355L205.882 330.166L206.788 329.743L205.941 327.931ZM212.245 327.256L213.159 326.85L212.347 325.022L211.433 325.428L212.245 327.256ZM216.969 323.035L216.047 323.423L216.823 325.266L217.745 324.878L216.969 323.035ZM223.288 322.609L224.217 322.239L223.478 320.381L222.549 320.751L223.288 322.609ZM228.177 318.574L227.241 318.926L227.944 320.798L228.88 320.447L228.177 318.574ZM234.506 318.397L235.449 318.063L234.782 316.178L233.84 316.511L234.506 318.397ZM239.549 314.555L238.6 314.87L239.23 316.768L240.179 316.453L239.549 314.555ZM245.881 314.62L246.836 314.323L246.242 312.414L245.288 312.71L245.881 314.62ZM251.065 310.974L250.104 311.253L250.662 313.173L251.623 312.894L251.065 310.974ZM257.394 311.275L258.359 311.014L257.837 309.083L256.872 309.345L257.394 311.275ZM262.704 307.823L261.734 308.066L262.222 310.006L263.192 309.762L262.704 307.823ZM269.025 308.35L269.999 308.123L269.545 306.175L268.571 306.402L269.025 308.35ZM274.446 305.086L273.468 305.297L273.889 307.252L274.866 307.042L274.446 305.086ZM280.749 305.827L281.73 305.633L281.341 303.671L280.36 303.865L280.749 305.827ZM286.271 302.744L285.287 302.923L285.644 304.891L286.628 304.712L286.271 302.744ZM292.547 303.684L293.534 303.521L293.206 301.548L292.22 301.711L292.547 303.684ZM298.162 300.771L297.174 300.92L297.472 302.897L298.461 302.748L298.162 300.771ZM304.405 301.894L305.396 301.758L305.125 299.777L304.134 299.912L304.405 301.894ZM310.105 299.137L309.113 299.259L309.357 301.244L310.35 301.122L310.105 299.137ZM316.309 300.426L317.303 300.316L317.083 298.328L316.089 298.438L316.309 300.426ZM322.088 297.812L321.093 297.91L321.289 299.9L322.284 299.802L322.088 297.812ZM328.248 299.25L329.244 299.163L329.071 297.171L328.074 297.258L328.248 299.25ZM334.102 296.766L333.105 296.842L333.257 298.836L334.254 298.76L334.102 296.766ZM340.214 298.335L341.212 298.269L341.08 296.274L340.082 296.34L340.214 298.335ZM346.12 295.968L345.122 296.025L345.235 298.022L346.234 297.965L346.12 295.968ZM352.204 297.651L353.203 297.603L353.107 295.606L352.108 295.654L352.204 297.651ZM358.133 295.388L357.134 295.428L357.214 297.427L358.213 297.387L358.133 295.388ZM364.214 297.169L365.213 297.137L365.148 295.138L364.149 295.17L364.214 297.169ZM370.155 294.997L369.156 295.022L369.207 297.021L370.206 296.996L370.155 294.997ZM376.244 296.862L377.244 296.843L377.206 294.843L376.206 294.862L376.244 296.862ZM382.188 294.767L381.188 294.78L381.214 296.78L382.214 296.767L382.188 294.767ZM388.245 296.704L389.245 296.697L389.23 294.697L388.23 294.704L388.245 296.704ZM394.233 294.674L393.233 294.677L393.238 296.677L394.238 296.674L394.233 294.674ZM400.241 296.672L401.241 296.674L401.245 294.674L400.245 294.672L400.241 296.672ZM406.296 294.696L405.296 294.69L405.284 296.69L406.284 296.696L406.296 294.696ZM412.253 296.744L413.253 296.753L413.273 294.753L412.273 294.744L412.253 296.744ZM418.312 294.813L417.312 294.8L417.286 296.799L418.286 296.812L418.312 294.813ZM424.288 296.9L425.288 296.916L425.32 294.916L424.32 294.9L424.288 296.9ZM430.319 295.004L429.319 294.985L429.282 296.985L430.282 297.004L430.319 295.004ZM436.339 297.123L437.339 297.144L437.381 295.145L436.381 295.124L436.339 297.123ZM442.35 295.254L441.35 295.231L441.305 297.231L442.304 297.254L442.35 295.254ZM448.318 297.396L449.317 297.421L449.366 295.421L448.367 295.397L448.318 297.396ZM454.414 295.549L453.415 295.523L453.363 297.523L454.362 297.549L454.414 295.549ZM460.328 297.706L461.328 297.733L461.382 295.734L460.382 295.707L460.328 297.706ZM466.412 295.873L465.412 295.845L465.356 297.844L466.356 297.872L466.412 295.873ZM472.381 298.042L473.38 298.07L473.437 296.071L472.438 296.043L472.381 298.042ZM478.414 296.215L477.414 296.186L477.357 298.185L478.356 298.214L478.414 296.215ZM484.393 298.389L485.393 298.418L485.451 296.419L484.452 296.39L484.393 298.389ZM490.465 296.565L489.465 296.536L489.407 298.535L490.406 298.565L490.465 296.565ZM496.387 298.739L497.386 298.768L497.444 296.768L496.445 296.739L496.387 298.739ZM502.485 296.914L501.486 296.885L501.428 298.884L502.428 298.913L502.485 296.914ZM508.479 299.081L509.478 299.107L509.53 297.107L508.53 297.082L508.479 299.081ZM514.476 297.219L513.477 297.198L513.436 299.198L514.436 299.218L514.476 297.219ZM520.317 299.322L521.316 299.337L521.346 297.337L520.346 297.322L520.317 299.322ZM526.253 297.394L525.253 297.385L525.234 299.385L526.234 299.394L526.253 297.394ZM532.191 299.433L533.191 299.437L533.199 297.437L532.199 297.433L532.191 299.433ZM538.064 297.438L537.064 297.44L537.068 299.44L538.068 299.438L538.064 297.438ZM544.001 299.408L545.001 299.4L544.985 297.4L543.985 297.408L544.001 299.408ZM549.92 297.343L548.92 297.357L548.948 299.357L549.948 299.343L549.92 297.343ZM555.809 299.243L556.809 299.222L556.768 297.223L555.768 297.243L555.809 299.243ZM561.719 297.104L560.72 297.131L560.773 299.13L561.772 299.103L561.719 297.104ZM567.695 298.927L568.694 298.894L568.628 296.895L567.629 296.928L567.695 298.927ZM573.474 296.716L572.475 296.756L572.554 298.754L573.553 298.715L573.474 296.716ZM579.533 298.458L580.532 298.412L580.44 296.414L579.441 296.46L579.533 298.458ZM585.309 296.168L584.31 296.221L584.417 298.219L585.415 298.165L585.309 296.168ZM591.334 297.829L592.333 297.769L592.212 295.773L591.214 295.833L591.334 297.829ZM597.128 295.455L596.13 295.522L596.265 297.518L597.263 297.45L597.128 295.455ZM603.107 297.034L604.105 296.959L603.955 294.964L602.958 295.039L603.107 297.034ZM608.911 294.57L607.914 294.652L608.079 296.645L609.076 296.563L608.911 294.57ZM614.932 296.056L615.928 295.966L615.747 293.974L614.751 294.064L614.932 296.056ZM620.664 293.505L619.669 293.603L619.866 295.593L620.861 295.495L620.664 293.505ZM626.741 294.891L627.735 294.785L627.523 292.796L626.528 292.902L626.741 294.891ZM632.394 292.25L631.4 292.365L631.63 294.352L632.623 294.237L632.394 292.25ZM638.518 293.531L639.51 293.408L639.264 291.423L638.271 291.546L638.518 293.531ZM644.101 290.796L643.11 290.928L643.374 292.91L644.366 292.778L644.101 290.796ZM650.263 291.965L651.253 291.824L650.971 289.844L649.981 289.985L650.263 291.965ZM655.787 289.13L654.799 289.28L655.099 291.257L656.088 291.107L655.787 289.13ZM661.974 290.182L662.961 290.022L662.641 288.048L661.654 288.208L661.974 290.182ZM667.447 287.239L666.462 287.409L666.801 289.38L667.787 289.21L667.447 287.239ZM673.645 288.169L674.629 287.989L674.269 286.022L673.285 286.202L673.645 288.169ZM679.073 285.111L678.092 285.302L678.472 287.265L679.454 287.075L679.073 285.111ZM685.265 285.915L686.244 285.714L685.842 283.755L684.862 283.956L685.265 285.915ZM690.651 282.733L689.674 282.945L690.098 284.9L691.076 284.687L690.651 282.733ZM696.815 283.406L697.79 283.183L697.343 281.233L696.368 281.457L696.815 283.406ZM702.159 280.092L701.188 280.327L701.658 282.271L702.63 282.035L702.159 280.092ZM708.358 280.61L709.327 280.363L708.832 278.425L707.863 278.673L708.358 280.61ZM713.567 277.177L712.601 277.437L713.121 279.368L714.087 279.108L713.567 277.177ZM719.826 277.521L720.788 277.248L720.242 275.324L719.28 275.597L719.826 277.521ZM724.927 273.953L723.969 274.239L724.542 276.155L725.5 275.869L724.927 273.953ZM731.139 274.14L732.093 273.84L731.493 271.932L730.539 272.232L731.139 274.14ZM736.187 270.409L735.237 270.723L735.866 272.622L736.815 272.308L736.187 270.409ZM742.44 270.396L743.384 270.067L742.726 268.179L741.781 268.508L742.44 270.396ZM747.331 266.523L746.392 266.868L747.081 268.745L748.02 268.401L747.331 266.523ZM753.563 266.316L754.496 265.956L753.776 264.09L752.843 264.45L753.563 266.316ZM758.321 262.282L757.394 262.658L758.146 264.511L759.073 264.135L758.321 262.282ZM764.552 261.855L765.472 261.462L764.687 259.623L763.767 260.015L764.552 261.855ZM769.177 257.649L768.264 258.058L769.082 259.883L769.995 259.474L769.177 257.649ZM775.386 256.999L776.291 256.574L775.441 254.764L774.536 255.189L775.386 256.999ZM779.81 252.658L778.912 253.097L779.792 254.894L780.69 254.454L779.81 252.658ZM786.036 251.795L786.929 251.345L786.03 249.559L785.136 250.009L786.036 251.795ZM790.428 247.355L789.53 247.796L790.413 249.591L791.311 249.149L790.428 247.355ZM76.7287 429.685C77.4288 428.94 78.128 428.199 78.8261 427.462L77.3743 426.086C76.6742 426.825 75.9732 427.568 75.2713 428.315L76.7287 429.685ZM83.0042 423.089C84.3932 421.647 85.7786 420.222 87.1605 418.812L85.7323 417.412C84.3463 418.826 82.9569 420.256 81.5639 421.701L83.0042 423.089ZM91.3805 414.546C92.814 413.11 94.2439 411.691 95.6703 410.288L94.2682 408.862C92.8372 410.269 91.4029 411.692 89.9649 413.133L91.3805 414.546ZM99.9394 406.132C101.393 404.73 102.844 403.345 104.291 401.978L102.918 400.524C101.466 401.896 100.01 403.286 98.5512 404.692L99.9394 406.132ZM108.696 397.861C110.161 396.507 111.623 395.17 113.081 393.85L111.74 392.367C110.275 393.692 108.808 395.034 107.338 396.393L108.696 397.861ZM117.588 389.82C119.098 388.485 120.606 387.169 122.11 385.871L120.804 384.356C119.293 385.66 117.78 386.981 116.264 388.322L117.588 389.82ZM126.638 382.012C128.194 380.703 129.746 379.413 131.297 378.143L130.029 376.596C128.472 377.872 126.912 379.167 125.35 380.482L126.638 382.012ZM135.94 374.388C137.516 373.131 139.089 371.894 140.66 370.676L139.435 369.095C137.856 370.319 136.276 371.562 134.693 372.825L135.94 374.388ZM145.44 367.025C147.034 365.826 148.627 364.646 150.218 363.485L149.039 361.869C147.44 363.036 145.84 364.222 144.237 365.427L145.44 367.025ZM155.131 359.958C156.767 358.803 158.401 357.668 160.034 356.553L158.906 354.902C157.265 356.022 155.622 357.163 153.977 358.324L155.131 359.958ZM165.026 353.205C166.705 352.098 168.384 351.012 170.061 349.947L168.989 348.259C167.302 349.33 165.614 350.422 163.925 351.535L165.026 353.205ZM175.134 346.785C176.855 345.734 178.575 344.703 180.295 343.693L179.283 341.969C177.552 342.984 175.822 344.021 174.091 345.079L175.134 346.785ZM185.46 340.723C187.22 339.732 188.979 338.763 190.739 337.814L189.79 336.054C188.019 337.008 186.249 337.984 184.479 338.98L185.46 340.723ZM196.022 335.03C197.811 334.109 199.6 333.209 201.392 332.329L200.51 330.534C198.707 331.419 196.906 332.325 195.106 333.252L196.022 335.03ZM206.788 329.743C208.605 328.893 210.424 328.065 212.245 327.256L211.433 325.428C209.6 326.242 207.77 327.076 205.941 327.931L206.788 329.743ZM217.745 324.878C219.59 324.102 221.437 323.346 223.288 322.609L222.549 320.751C220.686 321.492 218.826 322.253 216.969 323.035L217.745 324.878ZM228.88 320.447C230.752 319.744 232.627 319.061 234.506 318.397L233.84 316.511C231.948 317.179 230.061 317.867 228.177 318.574L228.88 320.447ZM240.179 316.453C242.075 315.823 243.976 315.213 245.881 314.62L245.288 312.71C243.37 313.307 241.457 313.921 239.549 314.555L240.179 316.453ZM251.623 312.894C253.541 312.337 255.465 311.797 257.394 311.275L256.872 309.345C254.931 309.87 252.995 310.413 251.065 310.974L251.623 312.894ZM263.192 309.762C265.13 309.275 267.074 308.804 269.025 308.35L268.571 306.402C266.609 306.859 264.654 307.332 262.704 307.823L263.192 309.762ZM274.866 307.042C276.82 306.622 278.781 306.217 280.749 305.827L280.36 303.865C278.382 304.257 276.41 304.664 274.446 305.086L274.866 307.042ZM286.628 304.712C288.594 304.355 290.566 304.013 292.547 303.684L292.22 301.711C290.229 302.041 288.246 302.386 286.271 302.744L286.628 304.712ZM298.461 302.748C300.434 302.45 302.415 302.166 304.405 301.894L304.134 299.912C302.135 300.185 300.145 300.471 298.162 300.771L298.461 302.748ZM310.35 301.122C312.327 300.878 314.314 300.646 316.309 300.426L316.089 298.438C314.086 298.659 312.091 298.892 310.105 299.137L310.35 301.122ZM322.284 299.802C324.263 299.608 326.251 299.424 328.248 299.25L328.074 297.258C326.07 297.432 324.074 297.617 322.088 297.812L322.284 299.802ZM334.254 298.76C336.231 298.609 338.218 298.468 340.214 298.335L340.082 296.34C338.079 296.472 336.086 296.614 334.102 296.766L334.254 298.76ZM346.234 297.965C348.214 297.852 350.204 297.748 352.204 297.651L352.108 295.654C350.102 295.75 348.106 295.855 346.12 295.968L346.234 297.965ZM358.213 297.387C360.203 297.307 362.203 297.235 364.214 297.169L364.149 295.17C362.134 295.236 360.129 295.308 358.133 295.388L358.213 297.387ZM370.206 296.996C372.209 296.945 374.221 296.9 376.244 296.862L376.206 294.862C374.179 294.901 372.162 294.945 370.155 294.997L370.206 296.996ZM382.214 296.767C384.214 296.74 386.224 296.72 388.245 296.704L388.23 294.704C386.206 294.72 384.191 294.74 382.188 294.767L382.214 296.767ZM394.238 296.674C396.229 296.669 398.229 296.668 400.241 296.672L400.245 294.672C398.23 294.668 396.226 294.669 394.233 294.674L394.238 296.674ZM406.284 296.696C408.263 296.708 410.253 296.724 412.253 296.744L412.273 294.744C410.27 294.724 408.278 294.708 406.296 294.696L406.284 296.696ZM418.286 296.812C420.276 296.838 422.277 296.868 424.288 296.9L424.32 294.9C422.307 294.868 420.304 294.839 418.312 294.813L418.286 296.812ZM430.282 297.004C432.29 297.041 434.309 297.081 436.339 297.123L436.381 295.124C434.35 295.081 432.329 295.041 430.319 295.004L430.282 297.004ZM442.304 297.254C444.298 297.299 446.303 297.347 448.318 297.396L448.367 295.397C446.351 295.347 444.345 295.3 442.35 295.254L442.304 297.254ZM454.362 297.549C456.341 297.6 458.329 297.652 460.328 297.706L460.382 295.707C458.383 295.653 456.393 295.6 454.414 295.549L454.362 297.549ZM466.356 297.872C468.354 297.928 470.362 297.984 472.381 298.042L472.438 296.043C470.419 295.985 468.41 295.928 466.412 295.873L466.356 297.872ZM478.356 298.214C480.358 298.272 482.371 298.33 484.393 298.389L484.452 296.39C482.429 296.331 480.416 296.272 478.414 296.215L478.356 298.214ZM490.406 298.565C492.39 298.622 494.383 298.68 496.387 298.739L496.445 296.739C494.441 296.681 492.448 296.623 490.465 296.565L490.406 298.565ZM502.428 298.913C503.44 298.942 504.454 298.971 505.472 299L505.528 297C504.511 296.972 503.497 296.943 502.485 296.914L502.428 298.913ZM505.472 299C506.477 299.028 507.479 299.055 508.479 299.081L508.53 297.082C507.533 297.056 506.532 297.029 505.528 297L505.472 299ZM514.436 299.218C516.409 299.259 518.369 299.293 520.317 299.322L520.346 297.322C518.402 297.293 516.446 297.259 514.476 297.219L514.436 299.218ZM526.234 299.394C528.233 299.413 530.219 299.426 532.191 299.433L532.199 297.433C530.23 297.426 528.248 297.413 526.253 297.394L526.234 299.394ZM538.068 299.438C540.06 299.434 542.038 299.424 544.001 299.408L543.985 297.408C542.026 297.424 540.052 297.434 538.064 297.438L538.068 299.438ZM549.948 299.343C551.916 299.315 553.869 299.282 555.809 299.243L555.768 297.243C553.833 297.282 551.884 297.315 549.92 297.343L549.948 299.343ZM561.772 299.103C563.762 299.051 565.736 298.992 567.695 298.927L567.629 296.928C565.674 296.993 563.705 297.051 561.719 297.104L561.772 299.103ZM573.553 298.715C575.563 298.635 577.556 298.55 579.533 298.458L579.441 296.46C577.468 296.552 575.48 296.637 573.474 296.716L573.553 298.715ZM585.415 298.165C587.405 298.059 589.378 297.947 591.334 297.829L591.214 295.833C589.263 295.951 587.294 296.063 585.309 296.168L585.415 298.165ZM597.263 297.45C599.228 297.317 601.177 297.178 603.107 297.034L602.958 295.039C601.032 295.184 599.089 295.322 597.128 295.455L597.263 297.45ZM609.076 296.563C611.046 296.4 612.998 296.231 614.932 296.056L614.751 294.064C612.823 294.239 610.876 294.407 608.911 294.57L609.076 296.563ZM620.861 295.495C622.841 295.3 624.801 295.098 626.741 294.891L626.528 292.902C624.594 293.109 622.639 293.31 620.664 293.505L620.861 295.495ZM632.623 294.237C634.609 294.008 636.574 293.772 638.518 293.531L638.271 291.546C636.333 291.787 634.374 292.022 632.394 292.25L632.623 294.237ZM644.366 292.778C646.354 292.513 648.32 292.242 650.263 291.965L649.981 289.985C648.044 290.261 646.084 290.532 644.101 290.796L644.366 292.778ZM656.088 291.107C658.075 290.805 660.037 290.496 661.974 290.182L661.654 288.208C659.723 288.521 657.768 288.828 655.787 289.13L656.088 291.107ZM667.787 289.21C669.766 288.869 671.719 288.522 673.645 288.169L673.285 286.202C671.366 286.553 669.42 286.899 667.447 287.239L667.787 289.21ZM679.454 287.075C681.42 286.693 683.357 286.307 685.265 285.915L684.862 283.956C682.961 284.346 681.032 284.731 679.073 285.111L679.454 287.075ZM691.076 284.687C693.02 284.265 694.933 283.838 696.815 283.406L696.368 281.457C694.494 281.887 692.588 282.312 690.651 282.733L691.076 284.687ZM702.63 282.035C704.574 281.565 706.483 281.089 708.358 280.61L707.863 278.673C705.996 279.15 704.095 279.623 702.159 280.092L702.63 282.035ZM714.087 279.108C716.04 278.582 717.953 278.053 719.826 277.521L719.28 275.597C717.415 276.126 715.511 276.653 713.567 277.177L714.087 279.108ZM725.5 275.869C727.424 275.294 729.303 274.717 731.139 274.14L730.539 272.232C728.712 272.807 726.842 273.38 724.927 273.953L725.5 275.869ZM736.815 272.308C738.742 271.67 740.616 271.032 742.44 270.396L741.781 268.508C739.968 269.14 738.103 269.774 736.187 270.409L736.815 272.308ZM748.02 268.401C749.929 267.701 751.776 267.005 753.563 266.316L752.843 264.45C751.067 265.135 749.23 265.827 747.331 266.523L748.02 268.401ZM759.073 264.135C760.977 263.362 762.802 262.601 764.552 261.855L763.767 260.015C762.028 260.757 760.213 261.514 758.321 262.282L759.073 264.135ZM769.995 259.474C771.897 258.621 773.693 257.795 775.386 256.999L774.536 255.189C772.852 255.98 771.067 256.801 769.177 257.649L769.995 259.474ZM780.69 254.454C782.644 253.497 784.423 252.607 786.036 251.795L785.136 250.009C783.527 250.819 781.755 251.706 779.81 252.658L780.69 254.454ZM791.311 249.149C792.281 248.671 793.146 248.257 793.912 247.911L793.088 246.089C792.294 246.447 791.407 246.872 790.428 247.355L791.311 249.149Z" fill="#555555"/>
<g filter="url(#filter0_d_205_2)">
<path d="M414.113 383.618H683.887C689.927 383.618 694.825 388.515 694.825 394.555C694.825 400.092 690.709 404.669 685.37 405.394L683.887 405.493H414.113C408.072 405.493 403.176 400.596 403.176 394.555C403.176 389.018 407.29 384.442 412.629 383.717L414.113 383.618Z" fill="#375282"/>
</g>
<g filter="url(#filter1_d_205_2)">
<path d="M640.146 215.917C654.241 215.917 665.667 227.343 665.667 241.437V350.817C665.667 364.912 654.241 376.338 640.146 376.338H457.854C443.759 376.338 432.333 364.912 432.333 350.817V241.437C432.333 227.343 443.759 215.917 457.854 215.917H640.146Z" fill="url(#paint0_linear_205_2)"/>
</g>
<g filter="url(#filter2_d_205_2)">
<path d="M463.062 250.833C476.006 250.833 486.5 261.327 486.5 274.271V435.729C486.5 448.673 476.006 459.167 463.062 459.167H384.938C371.993 459.167 361.5 448.673 361.5 435.729V274.271C361.5 261.327 371.993 250.833 384.938 250.833H463.062ZM437.021 417.5H410.979C406.665 417.5 403.167 420.998 403.167 425.312C403.167 429.627 406.665 433.125 410.979 433.125H437.021C441.335 433.125 444.833 429.627 444.833 425.312C444.833 420.998 441.335 417.5 437.021 417.5Z" fill="url(#paint1_linear_205_2)"/>
<path d="M463.062 251.333C475.73 251.333 486 261.603 486 274.271V435.729C486 448.397 475.73 458.667 463.062 458.667H384.938C372.269 458.667 362 448.397 362 435.729V274.271C362 261.603 372.269 251.333 384.938 251.333H463.062ZM437.021 417H410.979C406.388 417 402.667 420.722 402.667 425.312C402.667 429.903 406.388 433.625 410.979 433.625H437.021C441.612 433.625 445.333 429.903 445.333 425.312C445.333 420.722 441.612 417 437.021 417Z" stroke="#375282"/>
</g>
<g filter="url(#filter3_d_205_2)">
<path d="M885.382 203.89C884.425 202.993 883.027 202.75 881.824 203.271C880.621 203.792 879.842 204.978 879.842 206.29V220.69C878.901 220.712 877.803 220.767 876.579 220.88C872.539 221.253 867.062 222.264 861.379 224.839C849.796 230.088 837.889 241.613 835.127 265.784C834.972 267.139 835.669 268.449 836.879 269.077C838.089 269.706 839.561 269.522 840.58 268.617C851.991 258.474 862.678 254.108 870.413 252.251C874.289 251.321 877.44 251.017 879.587 250.942C879.674 250.939 879.759 250.936 879.842 250.934V265.5C879.842 266.811 880.621 267.997 881.824 268.518C883.027 269.04 884.425 268.797 885.382 267.9L916.961 238.294C917.624 237.673 918 236.804 918 235.895C918 234.986 917.624 234.117 916.961 233.495L885.382 203.89ZM882.753 227.322L882.804 227.326L882.812 227.327L882.808 227.326C883.731 227.418 884.651 227.114 885.339 226.492C886.028 225.868 886.421 224.982 886.421 224.053V213.882L909.901 235.895L886.421 257.907V247.737C886.421 246.078 885.227 244.684 883.54 244.473L883.536 244.472L883.532 244.472L883.522 244.471L883.496 244.468L883.42 244.459C883.36 244.453 883.279 244.445 883.179 244.436C882.978 244.418 882.698 244.397 882.344 244.379C881.635 244.344 880.627 244.323 879.357 244.367C876.817 244.456 873.225 244.811 868.877 245.854C861.824 247.547 852.827 251.043 843.144 258.101C847.054 242.102 855.942 234.526 864.094 230.832C868.938 228.637 873.658 227.757 877.184 227.431C878.941 227.269 880.383 227.246 881.371 227.262C881.864 227.27 882.242 227.288 882.487 227.303C882.61 227.311 882.699 227.317 882.753 227.322ZM834.447 206.947C825.364 206.947 818 214.311 818 223.395V279.974C818 289.057 825.364 296.421 834.447 296.421H891.026C900.11 296.421 907.474 289.057 907.474 279.974V274.053C907.474 272.236 906.001 270.763 904.184 270.763C902.367 270.763 900.895 272.236 900.895 274.053V279.974C900.895 285.424 896.477 289.842 891.026 289.842H834.447C828.997 289.842 824.579 285.424 824.579 279.974V223.395C824.579 217.945 828.997 213.526 834.447 213.526H856.158C857.975 213.526 859.447 212.054 859.447 210.237C859.447 208.42 857.975 206.947 856.158 206.947H834.447Z" fill="url(#paint2_linear_205_2)"/>
</g>
</g>
<defs>
<filter id="filter0_d_205_2" x="399.176" y="383.618" width="299.649" height="29.875" filterUnits="userSpaceOnUse" color-interpolation-filters="sRGB">
<feFlood flood-opacity="0" result="BackgroundImageFix"/>
<feColorMatrix in="SourceAlpha" type="matrix" values="0 0 0 0 0 0 0 0 0 0 0 0 0 0 0 0 0 0 127 0" result="hardAlpha"/>
<feOffset dy="4"/>
<feGaussianBlur stdDeviation="2"/>
<feComposite in2="hardAlpha" operator="out"/>
<feColorMatrix type="matrix" values="0 0 0 0 0 0 0 0 0 0 0 0 0 0 0 0 0 0 0.25 0"/>
<feBlend mode="normal" in2="BackgroundImageFix" result="effect1_dropShadow_205_2"/>
<feBlend mode="normal" in="SourceGraphic" in2="effect1_dropShadow_205_2" result="shape"/>
</filter>
<filter id="filter1_d_205_2" x="428.333" y="215.917" width="241.334" height="168.421" filterUnits="userSpaceOnUse" color-interpolation-filters="sRGB">
<feFlood flood-opacity="0" result="BackgroundImageFix"/>
<feColorMatrix in="SourceAlpha" type="matrix" values="0 0 0 0 0 0 0 0 0 0 0 0 0 0 0 0 0 0 127 0" result="hardAlpha"/>
<feOffset dy="4"/>
<feGaussianBlur stdDeviation="2"/>
<feComposite in2="hardAlpha" operator="out"/>
<feColorMatrix type="matrix" values="0 0 0 0 0 0 0 0 0 0 0 0 0 0 0 0 0 0 0.25 0"/>
<feBlend mode="normal" in2="BackgroundImageFix" result="effect1_dropShadow_205_2"/>
<feBlend mode="normal" in="SourceGraphic" in2="effect1_dropShadow_205_2" result="shape"/>
</filter>
<filter id="filter2_d_205_2" x="357.5" y="250.833" width="133" height="216.333" filterUnits="userSpaceOnUse" color-interpolation-filters="sRGB">
<feFlood flood-opacity="0" result="BackgroundImageFix"/>
<feColorMatrix in="SourceAlpha" type="matrix" values="0 0 0 0 0 0 0 0 0 0 0 0 0 0 0 0 0 0 127 0" result="hardAlpha"/>
<feOffset dy="4"/>
<feGaussianBlur stdDeviation="2"/>
<feComposite in2="hardAlpha" operator="out"/>
<feColorMatrix type="matrix" values="0 0 0 0 0 0 0 0 0 0 0 0 0 0 0 0 0 0 0.25 0"/>
<feBlend mode="normal" in2="BackgroundImageFix" result="effect1_dropShadow_205_2"/>
<feBlend mode="normal" in="SourceGraphic" in2="effect1_dropShadow_205_2" result="shape"/>
</filter>
<filter id="filter3_d_205_2" x="814" y="203" width="108" height="101.421" filterUnits="userSpaceOnUse" color-interpolation-filters="sRGB">
<feFlood flood-opacity="0" result="BackgroundImageFix"/>
<feColorMatrix in="SourceAlpha" type="matrix" values="0 0 0 0 0 0 0 0 0 0 0 0 0 0 0 0 0 0 127 0" result="hardAlpha"/>
<feOffset dy="4"/>
<feGaussianBlur stdDeviation="2"/>
<feComposite in2="hardAlpha" operator="out"/>
<feColorMatrix type="matrix" values="0 0 0 0 0 0 0 0 0 0 0 0 0 0 0 0 0 0 0.25 0"/>
<feBlend mode="normal" in2="BackgroundImageFix" result="effect1_dropShadow_205_2"/>
<feBlend mode="normal" in="SourceGraphic" in2="effect1_dropShadow_205_2" result="shape"/>
</filter>
<linearGradient id="paint0_linear_205_2" x1="432.625" y1="215.625" x2="665.375" y2="376.625" gradientUnits="userSpaceOnUse">
<stop stop-color="#5F9BDB"/>
<stop offset="1" stop-color="#4268AB"/>
</linearGradient>
<linearGradient id="paint1_linear_205_2" x1="362" y1="251" x2="487" y2="459" gradientUnits="userSpaceOnUse">
<stop stop-color="#5F9BDB"/>
<stop offset="1" stop-color="#4268AB"/>
</linearGradient>
<linearGradient id="paint2_linear_205_2" x1="918" y1="203.158" x2="818.211" y2="296.632" gradientUnits="userSpaceOnUse">
<stop stop-color="#3E65BE"/>
<stop offset="1" stop-color="#163D78"/>
</linearGradient>
<clipPath id="clip0_205_2">
<rect width="1024" height="500" fill="white"/>
</clipPath>
</defs>
</svg>
