<svg width="300" height="300" viewBox="0 0 300 300" fill="none" xmlns="http://www.w3.org/2000/svg">
<g filter="url(#filter0_d_2_3)">
<path d="M197.531 42.7382C195.259 40.6083 191.939 40.0311 189.082 41.269C186.224 42.5069 184.375 45.3236 184.375 48.4377V82.6394C182.141 82.6906 179.532 82.8213 176.625 83.09C167.031 83.9763 154.023 86.3775 140.526 92.4938C113.015 104.959 84.7369 132.33 78.1756 189.738C77.8081 192.956 79.4631 196.066 82.3375 197.559C85.2113 199.051 88.7075 198.616 91.1282 196.464C118.228 172.376 143.611 162.006 161.98 157.597C171.186 155.388 178.67 154.666 183.77 154.488C183.976 154.481 184.178 154.474 184.375 154.469V189.063C184.375 192.177 186.224 194.993 189.082 196.231C191.939 197.469 195.259 196.892 197.531 194.763L272.531 124.449C274.106 122.973 275 120.909 275 118.75C275 116.591 274.106 114.528 272.531 113.051L197.531 42.7382ZM191.288 98.3888L191.411 98.3988L191.428 98.4006L191.418 98.3994C193.612 98.6169 195.795 97.8969 197.43 96.4175C199.066 94.9369 200 92.8325 200 90.625V66.4706L255.765 118.75L200 171.029V146.875C200 142.935 197.164 139.625 193.157 139.123L193.148 139.122L193.138 139.121L193.114 139.118L193.052 139.111L192.873 139.091C192.73 139.075 192.539 139.056 192.3 139.035C191.823 138.993 191.158 138.943 190.316 138.901C188.633 138.818 186.239 138.766 183.223 138.872C177.189 139.084 168.659 139.926 158.333 142.403C141.582 146.424 120.213 154.728 97.2169 171.49C106.503 133.493 127.613 115.499 146.974 106.726C158.477 101.514 169.688 99.4225 178.063 98.6488C182.236 98.2631 185.661 98.2088 188.006 98.2475C189.178 98.2669 190.075 98.3094 190.658 98.3444C190.948 98.3625 191.16 98.3781 191.288 98.3888ZM76.5625 50.0002C54.9889 50.0002 37.5 67.4894 37.5 89.0625V223.438C37.5 245.011 54.9889 262.5 76.5625 262.5H210.938C232.511 262.5 250 245.011 250 223.438V209.375C250 205.061 246.503 201.563 242.188 201.563C237.873 201.563 234.375 205.061 234.375 209.375V223.438C234.375 236.382 223.882 246.875 210.938 246.875H76.5625C63.6181 246.875 53.125 236.382 53.125 223.438V89.0625C53.125 76.1188 63.6181 65.625 76.5625 65.625H128.125C132.44 65.625 135.938 62.1274 135.938 57.8127C135.938 53.4979 132.44 50.0002 128.125 50.0002H76.5625Z" fill="url(#paint0_linear_2_3)"/>
</g>
<defs>
<filter id="filter0_d_2_3" x="33.5" y="40.625" width="245.5" height="229.875" filterUnits="userSpaceOnUse" color-interpolation-filters="sRGB">
<feFlood flood-opacity="0" result="BackgroundImageFix"/>
<feColorMatrix in="SourceAlpha" type="matrix" values="0 0 0 0 0 0 0 0 0 0 0 0 0 0 0 0 0 0 127 0" result="hardAlpha"/>
<feOffset dy="4"/>
<feGaussianBlur stdDeviation="2"/>
<feComposite in2="hardAlpha" operator="out"/>
<feColorMatrix type="matrix" values="0 0 0 0 0 0 0 0 0 0 0 0 0 0 0 0 0 0 0.25 0"/>
<feBlend mode="normal" in2="BackgroundImageFix" result="effect1_dropShadow_2_3"/>
<feBlend mode="normal" in="SourceGraphic" in2="effect1_dropShadow_2_3" result="shape"/>
</filter>
<linearGradient id="paint0_linear_2_3" x1="275" y1="41" x2="38" y2="263" gradientUnits="userSpaceOnUse">
<stop stop-color="#3E65BE"/>
<stop offset="1" stop-color="#163D78"/>
</linearGradient>
</defs>
</svg>
